<svg width="30" height="30" viewBox="0 0 30 30" fill="none" xmlns="http://www.w3.org/2000/svg">
<path d="M15 16.25C16.2083 16.25 17.2396 15.8229 18.0938 14.9688C18.9479 14.1146 19.375 13.0833 19.375 11.875C19.375 10.6667 18.9479 9.63542 18.0938 8.78125C17.2396 7.92708 16.2083 7.5 15 7.5C13.7917 7.5 12.7604 7.92708 11.9062 8.78125C11.0521 9.63542 10.625 10.6667 10.625 11.875C10.625 13.0833 11.0521 14.1146 11.9062 14.9688C12.7604 15.8229 13.7917 16.25 15 16.25ZM6.25 26.25C5.5625 26.25 4.97417 26.0054 4.485 25.5163C3.99583 25.0271 3.75083 24.4383 3.75 23.75V6.25C3.75 5.5625 3.995 4.97417 4.485 4.485C4.975 3.99583 5.56333 3.75083 6.25 3.75H23.75C24.4375 3.75 25.0263 3.995 25.5163 4.485C26.0063 4.975 26.2508 5.56333 26.25 6.25V23.75C26.25 24.4375 26.0054 25.0263 25.5163 25.5163C25.0271 26.0063 24.4383 26.2508 23.75 26.25H6.25ZM6.25 23.75H23.75V22.3125C22.625 21.2083 21.3179 20.3387 19.8288 19.7037C18.3396 19.0687 16.73 18.7508 15 18.75C13.27 18.7492 11.6604 19.0671 10.1713 19.7037C8.68208 20.3404 7.375 21.21 6.25 22.3125V23.75Z" fill="#4E370E"/>
</svg>
