<svg width="30" height="30" viewBox="0 0 30 30" fill="none" xmlns="http://www.w3.org/2000/svg">
<path fill-rule="evenodd" clip-rule="evenodd" d="M9.3675 26.5005L15 20.2005L20.6325 26.5005C21.549 27.5265 23.25 26.877 23.25 25.5V4.5C23.25 4.10218 23.092 3.72064 22.8107 3.43934C22.5294 3.15804 22.1478 3 21.75 3H8.25C7.85218 3 7.47064 3.15804 7.18934 3.43934C6.90804 3.72064 6.75 4.10218 6.75 4.5V25.5C6.75 26.877 8.451 27.5265 9.3675 26.5005ZM9.75 21.57V6H20.25V21.5715L16.119 16.9515C15.9783 16.7941 15.806 16.6682 15.6133 16.582C15.4206 16.4958 15.2118 16.4513 15.0007 16.4513C14.7896 16.4513 14.5809 16.4958 14.3882 16.582C14.1955 16.6682 14.0232 16.7941 13.8825 16.9515L9.75 21.57Z" fill="#4E370E"/>
</svg>
